<svg width="153" height="153" viewBox="0 0 153 153" fill="none" xmlns="http://www.w3.org/2000/svg">
<g id="Group 56301">
<path id="Vector" d="M89.1515 124.145C116.979 113.709 131.082 82.681 120.649 54.8427C110.217 27.0043 79.2013 12.8969 51.3733 23.3329C23.5454 33.7689 9.44338 64.7965 19.8755 92.6349C30.3076 120.473 61.3235 134.581 89.1515 124.145Z" fill="#077DBB"/>
<path id="Vector_2" d="M117.174 111.287C136.436 88.6464 133.703 54.672 111.071 35.4033C88.4388 16.1345 54.4773 18.8681 35.2157 41.5088C15.9542 64.1495 18.6867 98.1238 41.3189 117.393C63.9511 136.661 97.9127 133.928 117.174 111.287Z" fill="#077DBB"/>
<path id="Vector_3" opacity="0.4" d="M117.174 111.287C136.436 88.6464 133.703 54.672 111.071 35.4033C88.4388 16.1345 54.4773 18.8681 35.2157 41.5088C15.9542 64.1495 18.6867 98.1238 41.3189 117.393C63.9511 136.661 97.9127 133.928 117.174 111.287Z" fill="white"/>
<path id="Vector_4" d="M112.858 92.9735C109.559 100.222 104.186 106.329 97.418 110.523C90.6502 114.716 82.7913 116.809 74.8349 116.536C66.8785 116.262 59.1818 113.635 52.7176 108.987C46.2533 104.338 41.3118 97.8771 38.5177 90.4196C35.7236 82.9622 35.2023 74.8434 37.0197 67.0897C38.8371 59.3359 42.9117 52.2953 48.7284 46.8577C54.545 41.4201 61.8425 37.8295 69.6986 36.5402C77.5546 35.2508 85.6165 36.3204 92.865 39.6136C102.586 44.0416 110.152 52.1489 113.9 62.1543C117.649 72.1597 117.274 83.2447 112.858 92.9735Z" fill="#077DBB"/>
<g id="Vector_5" opacity="0.5">
<path d="M95.7258 67.4929L79.7684 93.7071L74.9831 90.7919L73.6264 67.3477L73.4345 67.2308L63.391 83.7298L57.8508 80.3547L73.8082 54.1405L78.6702 57.1025L79.9452 80.4794L80.1755 80.6197L90.2112 64.1334L95.7258 67.4929Z" fill="white"/>
<path d="M65.0868 60.4828L93.4865 77.7841L90.549 82.6097L62.1493 65.3084L65.0868 60.4828Z" fill="white"/>
<path d="M61.1223 66.9956L89.5219 84.2969L86.5844 89.1225L58.1848 71.8212L61.1223 66.9956Z" fill="white"/>
</g>
</g>
</svg>
