<svg width="202" height="28" viewBox="0 0 202 28" fill="none" xmlns="http://www.w3.org/2000/svg">
<g id="Group">
<path id="Vector" d="M112.375 17.3339C112.375 18.7243 112.609 19.9757 113.262 20.9027C113.916 21.7832 114.99 22.3394 116.717 22.3394C117.418 22.3394 118.258 22.2004 119.005 22.0613C120.032 21.8296 120.966 21.5052 121.293 21.3198C121.433 21.2734 121.526 21.1807 121.573 21.088C121.619 20.9953 121.619 20.9026 121.573 20.81L121.106 18.5853V18.539C121.106 18.4926 121.059 18.4926 121.013 18.4463C120.966 18.4463 120.919 18.3999 120.826 18.4463C120.779 18.4463 120.779 18.4463 120.732 18.4926C120.452 18.5853 119.799 18.7707 119.192 18.9097C118.772 19.0024 118.351 19.0488 118.025 19.0488C117.511 19.0488 117.091 18.9561 116.717 18.678C116.391 18.3999 116.204 17.9364 116.204 17.2412V9.26956H120.592C120.686 9.26956 120.779 9.22321 120.872 9.17686C120.966 9.08417 121.013 8.99148 121.013 8.89878V6.39604C121.013 6.30335 120.966 6.16431 120.919 6.11796C120.872 6.07162 120.732 6.02527 120.639 6.02527H116.25V0.556324C116.25 0.46363 116.204 0.324586 116.157 0.278239C116.11 0.231892 116.017 0.185547 115.924 0.185547H112.889C112.796 0.185547 112.702 0.231895 112.609 0.324589C112.516 0.417283 112.469 0.509973 112.469 0.602667V6.11796H110.415C110.321 6.11796 110.228 6.16431 110.181 6.21066C110.134 6.257 110.088 6.39605 110.088 6.48874V8.99147C110.088 9.08417 110.134 9.17686 110.181 9.26956C110.228 9.31591 110.321 9.36224 110.415 9.36224H112.469L112.375 17.3339Z" fill="#353D4A"/>
<path id="Vector_2" d="M106.446 4.07857C107.006 4.07857 107.52 3.84684 107.894 3.47607C108.267 3.10529 108.5 2.59547 108.5 2.03931C108.5 1.48314 108.267 0.973325 107.894 0.602549C107.52 0.231773 107.006 0.0463867 106.446 0.0463867C105.886 0.0463867 105.372 0.27812 105.046 0.602549C104.672 0.973325 104.485 1.48314 104.485 2.03931C104.485 2.59547 104.719 3.10529 105.046 3.47607C105.372 3.84684 105.886 4.07857 106.446 4.07857Z" fill="#353D4A"/>
<path id="Vector_3" d="M104.626 21.5515C104.626 21.6442 104.672 21.7369 104.766 21.8296C104.859 21.9223 104.952 21.9686 105.046 21.9686H108.034C108.127 21.9686 108.221 21.9223 108.314 21.8296C108.361 21.7833 108.454 21.6442 108.454 21.5515V6.30335C108.454 6.21066 108.407 6.11797 108.361 6.02527C108.267 5.93258 108.174 5.88623 108.08 5.88623H105.092C104.999 5.88623 104.906 5.93258 104.812 6.02527C104.766 6.07162 104.719 6.16431 104.719 6.30335V21.5515H104.626Z" fill="#353D4A"/>
<path id="Vector_4" d="M88.6587 19.9756C90.0126 21.4587 91.9735 22.3393 94.1677 22.3393C97.5759 22.3393 99.3967 19.9756 99.3967 19.9756L99.8636 19.3731C100.097 20.0219 100.284 20.7635 100.564 21.4123C100.611 21.5977 100.704 21.7368 100.797 21.8295C100.844 21.8758 100.891 21.9222 100.984 21.9222H102.338C102.431 21.9222 102.525 21.8758 102.618 21.8295C102.665 21.7831 102.711 21.6441 102.711 21.5514V0.463514C102.711 0.37082 102.665 0.278123 102.571 0.185429C102.478 0.139082 102.385 0.0463867 102.291 0.0463867H99.3033C99.2099 0.0463867 99.1166 0.0927351 99.0232 0.185429C98.9298 0.278123 98.8831 0.37082 98.8831 0.463514V6.48862L98.3229 6.25689C97.9027 6.11785 97.2024 5.88611 96.4087 5.74707C95.8018 5.65437 95.1015 5.56168 94.4012 5.56168C92.0201 5.56168 90.0593 6.44227 88.7054 7.87903C85.7641 11.0306 85.7641 16.8703 88.6587 19.9756ZM98.8831 16.4532C98.6497 17.0557 98.1361 17.8436 97.2491 18.3535C96.5955 18.7706 95.8018 19.0487 94.728 19.0487C93.3741 19.0487 92.3003 18.4925 91.5533 17.6119C90.7129 16.6386 90.2927 15.2945 90.2927 13.9505C90.2927 12.6064 90.7129 11.2624 91.6 10.2891C92.3936 9.45482 93.4674 8.89866 94.9147 8.89866C97.1557 8.89866 98.6497 9.91829 98.6497 9.91829L98.8364 10.0573V16.2678L98.8831 16.4532Z" fill="#353D4A"/>
<path id="Vector_5" d="M70.3109 13.9505C70.3109 16.3142 71.198 18.4461 72.6919 19.9756C74.1392 21.4587 76.1468 22.3393 78.4811 22.3393C79.695 22.3393 80.7688 22.1075 81.7025 21.7831C82.823 21.366 83.7568 20.8098 84.5038 20.161C84.5971 20.0683 84.6438 19.9756 84.6438 19.9292C84.6438 19.8365 84.5971 19.7438 84.5038 19.6975C83.9902 19.0486 83.5233 18.3998 83.0098 17.7509C82.9631 17.7046 82.9164 17.7046 82.8697 17.7046C82.7763 17.7046 82.683 17.7509 82.5896 17.7973L82.5429 17.8436C82.1227 18.168 81.6092 18.4925 80.9555 18.7705C80.3019 19.0023 79.5549 19.1877 78.6679 19.1877C77.3606 19.1877 76.2402 18.7242 75.4465 17.9826C74.6061 17.1947 74.0926 16.0824 74.0459 14.9237V14.5066H85.3441C85.4375 14.5066 85.5309 14.4603 85.5776 14.3676C85.6242 14.3212 85.6242 14.3212 85.6709 14.2749C85.6242 11.6331 85.9511 10.011 83.7101 7.7863C82.4028 6.44224 80.5354 5.70068 78.4344 5.70068C76.1001 5.70068 74.0926 6.62763 72.6453 8.06438C71.198 9.50114 70.3109 11.6331 70.3109 13.9505ZM74.326 11.7721C74.4661 10.7989 74.8862 9.9646 75.6332 9.36209C76.3335 8.80593 77.2206 8.4815 78.3411 8.4815C79.3682 8.4815 80.2552 8.85228 80.9089 9.40844C81.5625 10.011 81.9827 10.8452 82.0293 11.7721V12.1893H74.2793L74.326 11.7721Z" fill="#353D4A"/>
<path id="Vector_6" d="M60.7864 21.5512C60.7864 21.6439 60.8331 21.7366 60.9264 21.8293C61.0198 21.922 61.1132 21.9684 61.2066 21.9684H64.0545C64.2412 21.9684 64.428 21.9683 64.4747 21.8757C64.5213 21.8293 64.568 21.7366 64.568 21.5976V11.1232L64.6147 10.9378C64.8015 10.5207 65.315 9.91814 66.1554 9.50102C66.7156 9.22294 67.4159 8.9912 68.2096 8.9912C68.6298 8.9912 68.9566 9.03755 69.2367 9.0839C69.5168 9.13024 69.7503 9.22294 69.9837 9.31563C70.0771 9.36198 70.1705 9.36198 70.2638 9.31563C70.3105 9.31563 70.4039 9.22293 70.4506 9.13023L71.5711 6.6275C71.6178 6.5348 71.6178 6.48846 71.6178 6.44211C71.6178 6.34942 71.5711 6.30307 71.5244 6.21038C71.431 6.11768 71.291 6.02499 71.1042 5.93229C70.544 5.70056 69.7036 5.56152 68.7699 5.56152C67.7894 5.56152 66.9958 5.8396 66.3421 6.16403C65.3617 6.67385 64.6614 7.46175 64.3346 7.92522L63.8677 8.57408L62.9807 6.21038C62.934 6.11768 62.8873 6.02499 62.8406 5.97864C62.7939 5.9323 62.7472 5.93229 62.6539 5.93229H61.1599C61.0665 5.93229 60.9731 5.97864 60.8797 6.07134C60.8331 6.11768 60.7864 6.21038 60.7864 6.34942V21.5512Z" fill="#353D4A"/>
<path id="Vector_7" d="M44.8663 13.9509C44.8663 16.3609 45.8001 18.4466 47.2941 19.9297C48.8347 21.4591 50.9823 22.3397 53.3634 22.3397C54.764 22.3397 56.0245 22.0616 57.0516 21.5055C58.1254 20.9493 59.0125 20.0687 59.7128 19.0027C59.7595 18.91 59.8062 18.8173 59.7595 18.7246C59.7128 18.5856 59.6194 18.4929 59.4794 18.3539L57.8453 16.9635C57.7986 16.9171 57.7053 16.9171 57.6119 16.9171C57.5185 16.9171 57.4251 16.9634 57.3318 17.0561C56.9583 17.5196 56.4914 17.9831 55.8845 18.4002C55.2308 18.8173 54.4372 19.0954 53.4567 19.0954C52.0094 19.0954 50.8423 18.5393 49.9552 17.6587C49.0682 16.7317 48.6013 15.4803 48.6013 14.0436C48.6013 12.6068 49.1149 11.3555 50.0019 10.4285C50.889 9.54793 52.0561 8.99177 53.5034 8.99177C54.3438 8.99177 55.0908 9.17715 55.651 9.45524C56.258 9.73332 56.7248 10.1504 57.145 10.5676L57.1917 10.6139C57.2851 10.7066 57.3784 10.7529 57.4718 10.7993C57.5185 10.7993 57.5652 10.7993 57.6119 10.7066L59.1526 8.99177C59.2926 8.85273 59.386 8.71369 59.4327 8.57465C59.4327 8.5283 59.4327 8.4356 59.3393 8.38925C58.5456 7.55501 57.7053 6.90615 56.6781 6.39633C55.6977 5.93286 54.5772 5.65479 53.3167 5.65479C50.889 5.65479 48.7414 6.58172 47.2007 8.06483C45.8001 9.50158 44.8663 11.5872 44.8663 13.9509Z" fill="#353D4A"/>
<path id="Vector_8" d="M193.191 18.3074C193.191 20.7175 193.751 22.8031 196.879 22.8031C199.213 22.8031 201.174 21.6908 201.781 21.1809C202.015 20.9956 202.061 20.8102 201.921 20.5321L201.641 20.0223C201.548 19.8369 201.408 19.6515 200.988 19.8832C200.474 20.2077 198.98 21.2273 197.113 21.2273C195.152 21.2273 194.778 20.3004 194.778 18.1221V7.13781H200.754C201.128 7.13781 201.361 6.90608 201.361 6.58165V6.11818C201.361 5.8401 201.128 5.56202 200.754 5.56202H194.778V0.927321C194.778 0.649239 194.545 0.324805 194.218 0.371152L193.751 0.417502C193.424 0.463849 193.144 0.649235 193.144 0.973664V5.56202H191.09C190.763 5.56202 190.53 5.65471 190.53 5.97914V6.58165C190.53 6.90608 190.623 7.13781 191.09 7.13781H193.144V18.3074H193.191Z" fill="#575D68"/>
<path id="Vector_9" d="M174.796 13.9505C174.796 19.0487 178.765 22.7564 183.574 22.7564C187.075 22.7564 189.503 20.5318 190.203 19.5121C190.343 19.2804 190.296 19.095 190.11 18.8633L189.783 18.5852C189.549 18.3535 189.269 18.3071 188.989 18.6315C188.522 19.1413 186.702 21.227 183.62 21.227C179.605 21.227 176.43 18.029 176.43 13.9505C176.43 9.96465 179.745 6.7667 183.574 6.7667C186.235 6.7667 188.149 8.3425 188.569 8.75962C188.849 9.0377 189.176 9.17674 189.503 8.85231L189.783 8.57423C190.016 8.3425 190.016 8.06442 189.83 7.83268C189.083 6.90574 186.842 5.23725 183.574 5.23725C178.765 5.1909 174.796 8.89867 174.796 13.9505Z" fill="#575D68"/>
<path id="Vector_10" d="M157.989 13.9041C157.989 18.8169 161.163 22.7564 166.159 22.7564C168.82 22.7564 171.341 21.5977 172.322 20.8098C172.602 20.5781 172.648 20.3 172.508 20.161L172.088 19.5584C171.901 19.3267 171.715 19.3267 171.341 19.5584C170.314 20.2536 168.54 21.2269 166.112 21.2269C162.471 21.2269 159.623 18.2144 159.529 14.5066H173.069C173.675 14.5066 173.675 13.5333 173.675 12.8845C173.675 8.5742 170.547 5.23722 166.066 5.23722C161.163 5.19087 157.989 9.13037 157.989 13.9041ZM159.623 12.9772C159.856 9.50115 162.471 6.76667 166.159 6.76667C169.987 6.76667 172.135 9.68654 172.135 12.9772H159.623Z" fill="#575D68"/>
<path id="Vector_11" d="M148.651 21.8295C148.651 22.1076 148.791 22.3857 149.118 22.3857H149.725C150.099 22.3857 150.285 22.2003 150.285 21.8295V9.64027C150.379 9.40853 152.106 6.76676 155.421 6.76676C156.588 6.76676 157.522 7.18388 157.709 7.32292C157.989 7.46196 158.315 7.41561 158.409 7.09118L158.642 6.44233C158.736 6.1179 158.549 5.79347 158.222 5.70077C157.895 5.60808 156.915 5.2373 155.561 5.2373C152.386 5.2373 150.612 7.18388 150.145 7.78639L149.958 6.07155C149.912 5.74712 149.725 5.60808 149.492 5.60808H149.258C148.931 5.60808 148.698 5.88616 148.698 6.16424V21.8295H148.651Z" fill="#353D4A"/>
<path id="Vector_12" d="M144.17 2.87356C144.963 2.87356 145.617 2.27104 145.617 1.48315C145.617 0.695247 145.01 0.0463867 144.17 0.0463867C143.376 0.0463867 142.722 0.6489 142.722 1.48315C142.722 2.27104 143.376 2.87356 144.17 2.87356Z" fill="#353D4A"/>
<path id="Vector_13" d="M143.422 21.8298C143.422 22.1079 143.562 22.3859 143.889 22.3859H144.496C144.87 22.3859 145.056 22.2005 145.056 21.8298V6.07179C145.056 5.79371 144.776 5.51562 144.496 5.51562H143.983C143.656 5.51562 143.422 5.79371 143.422 6.07179V21.8298Z" fill="#353D4A"/>
<path id="Vector_14" d="M124.608 13.9504C124.608 18.8632 127.922 22.7564 132.311 22.7564C135.579 22.7564 137.773 20.9025 138.24 20.3L138.334 21.7831C138.427 22.2002 138.614 22.3392 138.94 22.3392H139.174C139.407 22.3392 139.734 22.1075 139.734 21.7831V0.556162C139.734 0.27808 139.454 0 139.221 0H138.66C138.287 0 138.1 0.27808 138.1 0.556162V6.76666C138.1 6.76666 135.999 5.14451 132.731 5.14451C128.016 5.19086 124.608 9.13036 124.608 13.9504ZM126.242 13.9504C126.242 9.9646 129.136 6.72031 133.011 6.72031C136.093 6.72031 138.147 8.62053 138.147 8.62053V18.3534C138.053 18.5388 136.139 21.1806 132.404 21.1806C128.903 21.2269 126.242 17.8436 126.242 13.9504Z" fill="#353D4A"/>
<path id="Vector_15" fill-rule="evenodd" clip-rule="evenodd" d="M16.4338 11.587C17.2275 11.8651 17.9745 12.3286 17.9745 13.4409C17.9745 14.5532 17.9278 14.2751 17.9745 14.924C17.9745 15.6656 17.7411 15.851 17.4143 15.99C17.3676 15.99 17.2275 16.0363 17.1808 16.0363H0V15.0631L0.233435 13.3946C0.980427 8.94525 3.5949 4.95941 7.28317 2.64206C11.9986 -0.324147 17.7411 -0.88031 22.97 1.62243C23.7637 1.9932 24.5574 2.45667 25.1643 2.92014L36.696 9.54777C35.3421 10.1039 32.6342 10.3357 30.9535 10.243C26.1914 9.96489 21.9896 7.36945 18.4414 4.40325C17.7411 3.84708 16.854 3.47631 15.8736 3.47631C13.6793 3.47631 11.8585 5.23749 11.8585 7.46214C11.9519 10.7064 14.1928 11.0309 16.4338 11.587Z" fill="#077DBB"/>
<path id="Vector_16" fill-rule="evenodd" clip-rule="evenodd" d="M19.7488 14.4602C19.7488 13.3478 19.7955 13.6259 19.7488 12.9771C19.7488 12.2355 19.9822 12.0501 20.2623 11.9111C20.309 11.9111 20.4491 11.8647 20.4958 11.8647H37.6766V12.838L37.4431 14.5065C36.6961 18.9558 34.0817 22.9417 30.3934 25.259C25.678 28.2252 19.9355 28.7814 14.7066 26.2786C13.9129 25.9079 13.1192 25.4444 12.5123 24.9809L0.980591 18.3533C2.33451 17.7972 5.04236 17.5654 6.72309 17.6581C11.4852 17.9362 15.687 20.5316 19.2352 23.4515C19.9355 24.0077 20.8226 24.3784 21.803 24.3784C23.9973 24.3784 25.8181 22.6172 25.8181 20.3926C25.8181 15.109 19.8421 17.7508 19.7488 14.4602Z" fill="#077DBB"/>
</g>
</svg>
