<svg width="25" height="24" viewBox="0 0 25 24" fill="none" xmlns="http://www.w3.org/2000/svg">
<path d="M20.47 8.75H17.53C16.26 8.75 15.5 7.99 15.5 6.72V3.78C15.5 2.51 16.26 1.75 17.53 1.75H20.47C21.74 1.75 22.5 2.51 22.5 3.78V6.72C22.5 7.99 21.74 8.75 20.47 8.75ZM20.69 5.44C20.57 5.32 20.41 5.26 20.25 5.26C20.09 5.26 19.93 5.32 19.81 5.44L19.63 5.62V3.38C19.63 3.03 19.35 2.75 19 2.75C18.65 2.75 18.37 3.03 18.37 3.38V5.62L18.19 5.44C17.95 5.2 17.55 5.2 17.31 5.44C17.07 5.68 17.07 6.08 17.31 6.32L18.56 7.57C18.61 7.62 18.68 7.66 18.75 7.69C18.77 7.7 18.79 7.7 18.81 7.71C18.86 7.73 18.91 7.74 18.97 7.74C18.99 7.74 19.01 7.74 19.03 7.74C19.1 7.74 19.16 7.73 19.23 7.7C19.24 7.7 19.24 7.7 19.25 7.7C19.32 7.67 19.38 7.63 19.43 7.58C19.44 7.57 19.44 7.57 19.45 7.57L20.7 6.32C20.94 6.08 20.94 5.68 20.69 5.44Z" fill="#F9FAFB"/>
<path d="M2.5 11.46V16.46C2.5 18.75 4.35 20.6 6.64 20.6H18.35C20.64 20.6 22.5 18.74 22.5 16.45V11.46C22.5 10.79 21.96 10.25 21.29 10.25H3.71C3.04 10.25 2.5 10.79 2.5 11.46ZM8.5 17.25H6.5C6.09 17.25 5.75 16.91 5.75 16.5C5.75 16.09 6.09 15.75 6.5 15.75H8.5C8.91 15.75 9.25 16.09 9.25 16.5C9.25 16.91 8.91 17.25 8.5 17.25ZM15 17.25H11C10.59 17.25 10.25 16.91 10.25 16.5C10.25 16.09 10.59 15.75 11 15.75H15C15.41 15.75 15.75 16.09 15.75 16.5C15.75 16.91 15.41 17.25 15 17.25Z" fill="#F9FAFB"/>
<path d="M14 4.61039V7.54039C14 8.21039 13.46 8.75039 12.79 8.75039H3.71C3.03 8.75039 2.5 8.19039 2.5 7.52039C2.51 6.39039 2.96 5.36039 3.71 4.61039C4.46 3.86039 5.5 3.40039 6.64 3.40039H12.79C13.46 3.40039 14 3.94039 14 4.61039Z" fill="#F9FAFB"/>
</svg>
