<svg width="81" height="80" viewBox="0 0 81 80" fill="none" xmlns="http://www.w3.org/2000/svg">
<rect x="0.772705" y="0.5" width="79" height="79" rx="39.5" stroke="#15803D"/>
<g clip-path="url(#clip0_2993_4325)">
<path d="M22.295 44.3136H58.9697V54.6996C58.9697 55.4376 58.8244 56.1683 58.542 56.85C58.2596 57.5318 57.8457 58.1513 57.3239 58.6731C56.8021 59.1949 56.1826 59.6088 55.5008 59.8912C54.8191 60.1736 54.0883 60.319 53.3504 60.319H27.9139C26.4236 60.3188 24.9944 59.7267 23.9407 58.6729C22.887 57.6191 22.295 56.1899 22.295 54.6996V44.3136Z" fill="#16A34A"/>
<path d="M21.9819 45.043H58.9697V48.1349H21.9819V45.043ZM22.4557 50.0766H58.0947V52.0867H22.4557V50.0766Z" fill="#15803D"/>
<path d="M61.2084 45.4338H19.3612C19.0725 45.4338 18.7957 45.3191 18.5915 45.1149C18.3874 44.9108 18.2727 44.6339 18.2727 44.3452V34.7622C18.2727 34.6192 18.3009 34.4777 18.3556 34.3456C18.4103 34.2135 18.4904 34.0935 18.5915 33.9925C18.6926 33.8914 18.8126 33.8112 18.9447 33.7565C19.0767 33.7018 19.2183 33.6736 19.3612 33.6736H61.2084C61.3514 33.6736 61.4929 33.7018 61.625 33.7565C61.7571 33.8112 61.8771 33.8914 61.9781 33.9925C62.0792 34.0935 62.1594 34.2135 62.2141 34.3456C62.2688 34.4777 62.297 34.6192 62.297 34.7622V44.3452C62.297 44.4882 62.2688 44.6297 62.2141 44.7618C62.1594 44.8939 62.0792 45.0139 61.9781 45.1149C61.8771 45.216 61.7571 45.2962 61.625 45.3509C61.4929 45.4056 61.3514 45.4338 61.2084 45.4338ZM20.4497 43.2567H60.1199V35.8507H20.4497V43.2567Z" fill="#14532D"/>
<path d="M53.0374 61.641H27.603C25.8242 61.6395 24.1186 60.9323 22.8607 59.6746C21.6028 58.4168 20.8953 56.7114 20.8936 54.9326V44.5466C20.8936 44.2579 21.0082 43.9811 21.2124 43.7769C21.4165 43.5728 21.6934 43.4581 21.9821 43.4581H58.6568C58.9455 43.4581 59.2223 43.5728 59.4265 43.7769C59.6306 43.9811 59.7453 44.2579 59.7453 44.5466V54.9326C59.7435 56.7112 59.0362 58.4163 57.7787 59.674C56.5211 60.9317 54.816 61.6391 53.0374 61.641ZM23.0706 45.6351V54.9326C23.0718 56.1342 23.5498 57.2862 24.3995 58.1358C25.2493 58.9853 26.4014 59.463 27.603 59.464H53.0374C54.2387 59.4626 55.3903 58.9848 56.2397 58.1354C57.0891 57.286 57.5669 56.1344 57.5682 54.9331V45.6351H23.0706ZM40.1567 35.3093C39.9414 35.3093 39.7309 35.2455 39.5519 35.1259C39.3728 35.0062 39.2333 34.8362 39.1509 34.6373C39.0685 34.4384 39.047 34.2195 39.089 34.0084C39.131 33.7972 39.2347 33.6033 39.3869 33.451C41.536 31.302 39.2314 27.1081 39.2076 27.0656C39.1375 26.941 39.0926 26.8038 39.0756 26.6619C39.0585 26.5199 39.0696 26.376 39.1081 26.2384C39.186 25.9604 39.3711 25.7247 39.6228 25.5831C39.8744 25.4416 40.172 25.4058 40.45 25.4837C40.728 25.5616 40.9637 25.7467 41.1052 25.9983C41.6272 26.9771 42.0155 28.0216 42.2596 29.1037C42.7966 31.5461 42.3358 33.5816 40.9269 34.99C40.8259 35.0913 40.7059 35.1717 40.5737 35.2265C40.4415 35.2813 40.2998 35.3095 40.1567 35.3093Z" fill="#14532D"/>
<path d="M36.7179 29.1485H36.6624C36.0638 29.1431 35.4723 29.019 34.922 28.7834C34.3717 28.5478 33.8736 28.2054 33.4565 27.776C33.0128 27.3214 32.3161 26.3324 31.4116 23.0036C30.9384 21.2641 30.6341 19.7204 30.6238 19.6556C30.5893 19.4786 30.5995 19.2957 30.6532 19.1235C30.707 18.9513 30.8027 18.7952 30.9318 18.6692C31.0608 18.5431 31.2192 18.4511 31.3926 18.4015C31.5661 18.3518 31.7491 18.3461 31.9253 18.3847C31.9901 18.3987 33.5259 18.7366 35.2536 19.2513C38.5601 20.2362 39.5325 20.9541 39.9762 21.4082C40.6027 22.0495 41.0261 22.8614 41.1933 23.7423C41.3606 24.6231 41.2643 25.5338 40.9164 26.3601C40.5686 27.1865 39.9847 27.8919 39.2379 28.388C38.4911 28.8841 37.6145 29.1488 36.7179 29.1491V29.1485ZM33.1227 20.9121C33.6887 23.3001 34.46 25.6871 35.0136 26.2546C35.4546 26.7062 36.0569 26.964 36.688 26.9715C37.0005 26.9751 37.3107 26.9172 37.6008 26.801C37.8909 26.6849 38.1553 26.5127 38.3789 26.2943C38.6025 26.0759 38.7809 25.8157 38.9039 25.5284C39.0268 25.2411 39.092 24.9323 39.0957 24.6198C39.0994 24.3073 39.0415 23.9972 38.9253 23.7071C38.8091 23.4169 38.6369 23.1525 38.4186 22.929C37.866 22.3619 35.4962 21.5341 33.1227 20.9121Z" fill="#14532D"/>
<path d="M44.2488 29.8317C43.8586 29.8314 43.47 29.7812 43.0924 29.6824C42.2202 29.4553 41.435 28.9745 40.836 28.3011C40.237 27.6276 39.8512 26.7917 39.7274 25.8989C39.6036 25.0062 39.7473 24.0968 40.1403 23.2857C40.5333 22.4746 41.1581 21.7983 41.9355 21.3423C42.4834 21.0209 43.6107 20.5845 47.0593 20.5057C48.8615 20.4648 50.4326 20.5436 50.4985 20.5467C50.6786 20.5559 50.8537 20.6097 51.0079 20.7033C51.1621 20.7969 51.2906 20.9273 51.3819 21.0829C51.4731 21.2385 51.5243 21.4143 51.5308 21.5946C51.5373 21.7749 51.4989 21.9539 51.419 22.1157C51.39 22.1748 50.6934 23.5847 49.7769 25.1381C48.0255 28.1108 47.0924 28.8816 46.5471 29.2035C45.8508 29.6142 45.0573 29.8311 44.2488 29.8317ZM48.211 22.6677C45.9137 22.6677 43.6771 22.8445 43.0369 23.2203C42.4924 23.5396 42.097 24.0622 41.9378 24.673C41.7786 25.2839 41.8686 25.933 42.1879 26.4775C42.5073 27.022 43.0298 27.4174 43.6407 27.5766C44.2515 27.7359 44.9006 27.6459 45.4452 27.3266C46.1288 26.9254 47.5019 24.8256 48.677 22.6713C48.5219 22.6689 48.3665 22.6677 48.211 22.6677ZM60.7087 42.2729H20.556C20.4845 42.2729 20.4137 42.2589 20.3477 42.2315C20.2816 42.2042 20.2216 42.1641 20.171 42.1136C20.1205 42.063 20.0804 42.003 20.053 41.937C20.0257 41.8709 20.0116 41.8001 20.0116 41.7287C20.0116 41.6572 20.0257 41.5864 20.053 41.5203C20.0804 41.4543 20.1205 41.3943 20.171 41.3438C20.2216 41.2932 20.2816 41.2531 20.3477 41.2258C20.4137 41.1984 20.4845 41.1844 20.556 41.1844H60.7087C60.8531 41.1844 60.9915 41.2418 61.0935 41.3439C61.1955 41.4459 61.2528 41.5843 61.2528 41.7287C61.2528 41.873 61.1955 42.0114 61.0935 42.1135C60.9915 42.2155 60.8531 42.2729 60.7087 42.2729ZM44.8636 40.098H36.681C36.5367 40.0979 36.3983 40.0406 36.2963 39.9385C36.1943 39.8364 36.1369 39.698 36.1369 39.5537C36.1369 39.4094 36.1943 39.271 36.2963 39.1689C36.3983 39.0668 36.5367 39.0095 36.681 39.0094H44.8636C45.0079 39.0095 45.1463 39.0668 45.2483 39.1689C45.3504 39.271 45.4077 39.4094 45.4077 39.5537C45.4077 39.698 45.3504 39.8364 45.2483 39.9385C45.1463 40.0406 45.0079 40.0979 44.8636 40.098ZM59.8851 38.0562H19.7323C19.588 38.0562 19.4496 37.9988 19.3476 37.8968C19.2456 37.7947 19.1882 37.6563 19.1882 37.512C19.1882 37.3676 19.2456 37.2292 19.3476 37.1272C19.4496 37.0251 19.588 36.9677 19.7323 36.9677H59.8851C60.0294 36.9677 60.1678 37.0251 60.2698 37.1272C60.3719 37.2292 60.4292 37.3676 60.4292 37.512C60.4292 37.6563 60.3719 37.7947 60.2698 37.8968C60.1678 37.9988 60.0294 38.0562 59.8851 38.0562ZM29.0749 35.802C28.932 35.802 28.7904 35.7738 28.6584 35.7191C28.5263 35.6644 28.4063 35.5842 28.3052 35.4831C28.2041 35.3821 28.124 35.2621 28.0693 35.13C28.0146 34.9979 27.9864 34.8564 27.9864 34.7134C27.9864 33.9913 27.6995 33.2987 27.1889 32.7881C26.6783 32.2775 25.9857 31.9906 25.2636 31.9906C24.5414 31.9906 23.8488 32.2775 23.3382 32.7881C22.8276 33.2987 22.5407 33.9913 22.5407 34.7134C22.5407 35.0021 22.426 35.279 22.2219 35.4831C22.0178 35.6873 21.7409 35.802 21.4522 35.802C21.1635 35.802 20.8866 35.6873 20.6825 35.4831C20.4784 35.279 20.3637 35.0021 20.3637 34.7134C20.3637 33.4139 20.8799 32.1676 21.7988 31.2487C22.7177 30.3298 23.964 29.8136 25.2636 29.8136C26.5631 29.8136 27.8094 30.3298 28.7283 31.2487C29.6472 32.1676 30.1634 33.4139 30.1634 34.7134C30.1634 34.8564 30.1353 34.9979 30.0806 35.13C30.0259 35.2621 29.9457 35.3821 29.8446 35.4831C29.7435 35.5842 29.6235 35.6644 29.4915 35.7191C29.3594 35.7738 29.2179 35.802 29.0749 35.802Z" fill="#14532D"/>
<path d="M37.5938 35.5682C37.3051 35.5682 37.0282 35.4535 36.8241 35.2494C36.62 35.0452 36.5053 34.7684 36.5053 34.4797C36.5053 33.7575 36.2184 33.065 35.7078 32.5543C35.1972 32.0437 34.5046 31.7568 33.7824 31.7568C33.0603 31.7568 32.3677 32.0437 31.8571 32.5543C31.3465 33.065 31.0596 33.7575 31.0596 34.4797C31.0596 34.7684 30.9449 35.0452 30.7408 35.2494C30.5366 35.4535 30.2598 35.5682 29.9711 35.5682C29.6824 35.5682 29.4055 35.4535 29.2014 35.2494C28.9973 35.0452 28.8826 34.7684 28.8826 34.4797C28.8825 33.8362 29.0092 33.199 29.2554 32.6044C29.5016 32.0099 29.8625 31.4697 30.3175 31.0146C30.7725 30.5596 31.3127 30.1986 31.9072 29.9524C32.5017 29.7061 33.1389 29.5793 33.7824 29.5793C34.4259 29.5793 35.0631 29.7061 35.6577 29.9524C36.2522 30.1986 36.7923 30.5596 37.2473 31.0146C37.7023 31.4697 38.0633 32.0099 38.3095 32.6044C38.5557 33.199 38.6824 33.8362 38.6823 34.4797C38.6823 34.7684 38.5676 35.0452 38.3635 35.2494C38.1594 35.4535 37.8825 35.5682 37.5938 35.5682ZM55.5994 35.2764C55.4565 35.2764 55.3149 35.2482 55.1829 35.1935C55.0508 35.1388 54.9308 35.0586 54.8297 34.9575C54.7286 34.8565 54.6485 34.7365 54.5938 34.6044C54.5391 34.4723 54.5109 34.3308 54.5109 34.1878C54.5109 33.4657 54.224 32.7731 53.7134 32.2625C53.2028 31.7519 52.5102 31.465 51.7881 31.465C51.0659 31.465 50.3733 31.7519 49.8627 32.2625C49.3521 32.7731 49.0652 33.4657 49.0652 34.1878C49.0652 34.4765 48.9505 34.7534 48.7464 34.9575C48.5422 35.1617 48.2654 35.2764 47.9767 35.2764C47.688 35.2764 47.4111 35.1617 47.207 34.9575C47.0029 34.7534 46.8882 34.4765 46.8882 34.1878C46.8882 33.5444 47.0149 32.9072 47.2612 32.3127C47.5074 31.7183 47.8683 31.1781 48.3233 30.7231C48.7783 30.2681 49.3185 29.9072 49.9129 29.6609C50.5074 29.4147 51.1446 29.288 51.7881 29.288C52.4315 29.288 53.0687 29.4147 53.6632 29.6609C54.2576 29.9072 54.7978 30.2681 55.2528 30.7231C55.7078 31.1781 56.0687 31.7183 56.3149 32.3127C56.5612 32.9072 56.6879 33.5444 56.6879 34.1878C56.6879 34.4765 56.5732 34.7534 56.3691 34.9575C56.165 35.1617 55.8881 35.2764 55.5994 35.2764ZM38.5159 26.7787C38.444 26.7788 38.3728 26.7646 38.3064 26.7369C38.24 26.7092 38.1798 26.6686 38.1293 26.6175L36.4664 24.9365C36.3688 24.8332 36.3155 24.6958 36.3179 24.5536C36.3202 24.4115 36.3781 24.276 36.4791 24.1759C36.5802 24.0759 36.7163 24.0194 36.8584 24.0185C37.0006 24.0175 37.1374 24.0723 37.2398 24.1709L38.9026 25.8514C38.9782 25.9277 39.0296 26.0247 39.0502 26.1301C39.0707 26.2356 39.0597 26.3447 39.0183 26.4439C38.977 26.543 38.9072 26.6277 38.8178 26.6873C38.7284 26.7469 38.6234 26.7787 38.5159 26.7787ZM42.2381 27.3654C42.1233 27.3651 42.0115 27.3284 41.9188 27.2606C41.8261 27.1929 41.7572 27.0976 41.722 26.9883C41.6867 26.879 41.6869 26.7614 41.7225 26.6522C41.7582 26.5431 41.8274 26.448 41.9204 26.3806L45.0786 24.1129C45.1958 24.0397 45.3364 24.0139 45.4719 24.0405C45.6074 24.0671 45.7277 24.1443 45.8084 24.2563C45.8892 24.3684 45.9243 24.5069 45.9067 24.6439C45.8891 24.7809 45.8201 24.906 45.7136 24.994L42.5554 27.2613C42.4632 27.3285 42.3522 27.3649 42.2381 27.3654Z" fill="#14532D"/>
<path d="M56.5631 34.4662C56.4187 34.4662 56.2803 34.4088 56.1782 34.3068C56.0761 34.2047 56.0188 34.0663 56.0188 33.9219V28.7416C56.0188 28.5973 56.0761 28.4589 56.1782 28.3568C56.2803 28.2547 56.4187 28.1974 56.5631 28.1974C56.7074 28.1974 56.8458 28.2547 56.9479 28.3568C57.05 28.4589 57.1073 28.5973 57.1073 28.7416V32.4063L58.6338 30.5553C58.7263 30.446 58.8581 30.3776 59.0007 30.3648C59.1433 30.352 59.2851 30.3959 59.3956 30.487C59.506 30.5781 59.5761 30.709 59.5907 30.8514C59.6053 30.9938 59.5632 31.1362 59.4735 31.2478L56.9855 34.2677C56.9342 34.33 56.8697 34.3802 56.7966 34.4145C56.7236 34.4488 56.6438 34.4665 56.5631 34.4662Z" fill="#14532D"/>
</g>
<defs>
<clipPath id="clip0_2993_4325">
<rect width="44" height="44" fill="white" transform="translate(18.2727 18)"/>
</clipPath>
</defs>
</svg>
