<svg width="40" height="40" viewBox="0 0 40 40" fill="none" xmlns="http://www.w3.org/2000/svg">
<path fill-rule="evenodd" clip-rule="evenodd" d="M20 2.5C16.7983 2.5 13.64 2.685 10.5333 3.045C8.03833 3.335 6.25 5.47834 6.25 7.92834V36.25C6.25005 36.4543 6.30018 36.6555 6.39601 36.836C6.49183 37.0164 6.63043 37.1706 6.79967 37.2851C6.96891 37.3996 7.16364 37.4708 7.36679 37.4926C7.56995 37.5144 7.77534 37.486 7.965 37.41L13.75 35.0967L19.5367 37.41C19.8341 37.5287 20.1659 37.5287 20.4633 37.41L26.25 35.0967L32.035 37.41C32.2247 37.486 32.4301 37.5144 32.6332 37.4926C32.8364 37.4708 33.0311 37.3996 33.2003 37.2851C33.3696 37.1706 33.5082 37.0164 33.604 36.836C33.6998 36.6555 33.75 36.4543 33.75 36.25V7.92834C33.75 5.47834 31.9617 3.335 29.4667 3.045C26.3242 2.68109 23.1634 2.49912 20 2.5ZM25.8833 14.6333C26.1041 14.3964 26.2243 14.083 26.2186 13.7591C26.2129 13.4353 26.0817 13.1263 25.8527 12.8973C25.6237 12.6683 25.3147 12.5371 24.9909 12.5314C24.667 12.5257 24.3536 12.6459 24.1167 12.8667L14.1167 22.8667C13.9939 22.9811 13.8954 23.1191 13.827 23.2724C13.7587 23.4258 13.722 23.5913 13.719 23.7591C13.7161 23.927 13.7469 24.0937 13.8098 24.2493C13.8727 24.405 13.9662 24.5464 14.0849 24.6651C14.2036 24.7838 14.345 24.8773 14.5007 24.9402C14.6563 25.0031 14.823 25.034 14.9909 25.031C15.1587 25.028 15.3242 24.9913 15.4776 24.923C15.6309 24.8547 15.7689 24.7561 15.8833 24.6333L25.8833 14.6333ZM14.375 15C14.375 14.5027 14.5725 14.0258 14.9242 13.6742C15.2758 13.3225 15.7527 13.125 16.25 13.125C16.7473 13.125 17.2242 13.3225 17.5758 13.6742C17.9275 14.0258 18.125 14.5027 18.125 15C18.125 15.4973 17.9275 15.9742 17.5758 16.3258C17.2242 16.6775 16.7473 16.875 16.25 16.875C15.7527 16.875 15.2758 16.6775 14.9242 16.3258C14.5725 15.9742 14.375 15.4973 14.375 15ZM23.75 20.625C23.2527 20.625 22.7758 20.8225 22.4242 21.1742C22.0725 21.5258 21.875 22.0027 21.875 22.5C21.875 22.9973 22.0725 23.4742 22.4242 23.8258C22.7758 24.1775 23.2527 24.375 23.75 24.375C24.2473 24.375 24.7242 24.1775 25.0758 23.8258C25.4275 23.4742 25.625 22.9973 25.625 22.5C25.625 22.0027 25.4275 21.5258 25.0758 21.1742C24.7242 20.8225 24.2473 20.625 23.75 20.625Z" fill="#F9FAFB"/>
</svg>
