<svg width="40" height="40" viewBox="0 0 40 40" fill="none" xmlns="http://www.w3.org/2000/svg">
<g id="Lock">
<g id="Iconly/Bold/Lock">
<g id="Lock_2">
<path id="Vector" d="M19.9746 3.33301C25.0892 3.33301 29.2046 7.35765 29.2046 12.3263V14.8819C32.0752 15.7779 34.1667 18.3766 34.1667 21.4803V29.7085C34.1667 33.551 30.9811 36.6663 27.0537 36.6663H12.948C9.01897 36.6663 5.83337 33.551 5.83337 29.7085V21.4803C5.83337 18.3766 7.92662 15.7779 10.7955 14.8819V12.3263C10.8125 7.35765 14.9278 3.33301 19.9746 3.33301ZM19.9916 22.3068C19.1787 22.3068 18.5182 22.9527 18.5182 23.7477V27.4246C18.5182 28.2361 19.1787 28.882 19.9916 28.882C20.8214 28.882 21.4819 28.2361 21.4819 27.4246V23.7477C21.4819 22.9527 20.8214 22.3068 19.9916 22.3068ZM20.0085 6.23141C16.5706 6.23141 13.7762 8.94764 13.7593 12.2932V14.5225H26.2408V12.3263C26.2408 8.9642 23.4464 6.23141 20.0085 6.23141Z" fill="#F9FAFB"/>
</g>
</g>
</g>
</svg>
