<svg width="93" height="40" viewBox="0 0 93 40" fill="none" xmlns="http://www.w3.org/2000/svg">
<g id="Logo">
<g id="Supporting Text">
<path d="M49.1007 37.4565C49.1007 37.0734 48.7929 36.8401 48.3431 36.8401H47.4551V38.0452H48.3667C48.8225 38.0452 49.1007 37.8286 49.1007 37.4565ZM48.9942 35.7739C48.9942 35.4241 48.7278 35.2186 48.2898 35.2186H47.4551V36.3237H48.2898C48.7278 36.3237 48.9942 36.1293 48.9942 35.7739ZM49.7756 37.5232C49.7756 38.1118 49.2665 38.5616 48.4259 38.5616H46.7803V34.7021H48.349C49.2191 34.7021 49.6809 35.152 49.6809 35.6962C49.6809 36.1626 49.379 36.4459 48.9824 36.5791C49.4204 36.6513 49.7756 37.0623 49.7756 37.5232Z" fill="#111827"/>
<path d="M51.7934 37.8342L52.7465 35.5018H53.445L51.4442 39.9999H50.7457L51.4087 38.5117L50.1241 35.5018H50.8759L51.7934 37.8342Z" fill="#111827"/>
<path d="M55.267 36.6236C55.267 35.4685 56.2082 34.6522 57.3684 34.6522C58.2267 34.6522 58.9667 35.0575 59.2804 35.8128H58.4694C58.2504 35.4018 57.8597 35.2075 57.3684 35.2075C56.5515 35.2075 55.9596 35.7517 55.9596 36.6236C55.9596 37.4954 56.5515 38.0452 57.3684 38.0452C57.8597 38.0452 58.2504 37.8508 58.4694 37.4399H59.2804C58.9667 38.1951 58.2267 38.595 57.3684 38.595C56.2082 38.595 55.267 37.7842 55.267 36.6236Z" fill="#111827"/>
<path d="M60.7451 36.9512V38.5616H60.0703V35.5018H60.7451V35.9461C60.9345 35.6406 61.2601 35.4518 61.7218 35.4518V36.1071H61.5502C61.0529 36.1071 60.7451 36.3015 60.7451 36.9512Z" fill="#111827"/>
<path d="M63.7155 35.9849C63.2596 35.9849 62.8926 36.2737 62.8216 36.7568H64.6271C64.6152 36.2848 64.2186 35.9849 63.7155 35.9849ZM65.2427 37.6509C65.0592 38.184 64.5442 38.6116 63.745 38.6116C62.8098 38.6116 62.1172 37.9897 62.1172 37.0289C62.1172 36.0682 62.7802 35.4518 63.745 35.4518C64.6744 35.4518 65.3315 36.0571 65.3315 36.9568C65.3315 37.0623 65.3256 37.1622 65.3078 37.2677H62.8157C62.863 37.7731 63.2478 38.0785 63.745 38.0785C64.1594 38.0785 64.3903 37.8897 64.5146 37.6509H65.2427Z" fill="#111827"/>
<path d="M65.7706 37.0178C65.7706 36.0738 66.4514 35.4518 67.3156 35.4518C67.7418 35.4518 68.1917 35.6406 68.4403 35.9294V34.4522H69.1211V38.5616H68.4403V38.1007C68.2331 38.3784 67.8425 38.6116 67.3097 38.6116C66.4514 38.6116 65.7706 37.9619 65.7706 37.0178ZM68.4403 37.0289C68.4403 36.3737 67.9608 36.0016 67.4518 36.0016C66.9486 36.0016 66.4632 36.357 66.4632 37.0178C66.4632 37.6787 66.9486 38.0618 67.4518 38.0618C67.9608 38.0618 68.4403 37.6898 68.4403 37.0289Z" fill="#111827"/>
<path d="M70.0074 38.5616V35.5018H70.6822V38.5616H70.0074ZM70.3508 35.0964C70.1081 35.0964 69.9186 34.9187 69.9186 34.691C69.9186 34.4633 70.1081 34.2856 70.3508 34.2856C70.5875 34.2856 70.777 34.4633 70.777 34.691C70.777 34.9187 70.5875 35.0964 70.3508 35.0964Z" fill="#111827"/>
<path d="M71.6748 37.712V36.0183H71.29V35.5018H71.6748V34.741H72.3555V35.5018H73.1487V36.0183H72.3555V37.712C72.3555 37.9397 72.4502 38.0341 72.7344 38.0341H73.1487V38.5616H72.616C72.0359 38.5616 71.6748 38.334 71.6748 37.712Z" fill="#111827"/>
<path d="M76.6521 34.7021C77.9722 34.7021 78.8364 35.4518 78.8364 36.6458C78.8364 37.8342 77.9722 38.5616 76.6521 38.5616H75.3084V34.7021H76.6521ZM75.9832 38.0452H76.6521C77.6229 38.0452 78.1438 37.5232 78.1438 36.6458C78.1438 35.7628 77.6229 35.2186 76.6521 35.2186H75.9832V38.0452Z" fill="#111827"/>
<path d="M79.5052 38.5616V35.5018H80.18V38.5616H79.5052ZM79.8486 35.0964C79.6059 35.0964 79.4164 34.9187 79.4164 34.691C79.4164 34.4633 79.6059 34.2856 79.8486 34.2856C80.0853 34.2856 80.2748 34.4633 80.2748 34.691C80.2748 34.9187 80.0853 35.0964 79.8486 35.0964Z" fill="#111827"/>
<path d="M81.7409 36.9512V38.5616H81.066V35.5018H81.7409V35.9461C81.9303 35.6406 82.2558 35.4518 82.7176 35.4518V36.1071H82.5459C82.0487 36.1071 81.7409 36.3015 81.7409 36.9512Z" fill="#111827"/>
<path d="M84.7112 35.9849C84.2554 35.9849 83.8884 36.2737 83.8173 36.7568H85.6228C85.611 36.2848 85.2144 35.9849 84.7112 35.9849ZM86.2384 37.6509C86.0549 38.184 85.5399 38.6116 84.7408 38.6116C83.8055 38.6116 83.1129 37.9897 83.1129 37.0289C83.1129 36.0682 83.7759 35.4518 84.7408 35.4518C85.6702 35.4518 86.3272 36.0571 86.3272 36.9568C86.3272 37.0623 86.3213 37.1622 86.3035 37.2677H83.8114C83.8588 37.7731 84.2436 38.0785 84.7408 38.0785C85.1552 38.0785 85.386 37.8897 85.5103 37.6509H86.2384Z" fill="#111827"/>
<path d="M86.7664 37.0289C86.7664 36.0738 87.4294 35.4518 88.3646 35.4518C89.1638 35.4518 89.6847 35.8239 89.8682 36.4681H89.1401C89.0276 36.1737 88.7672 35.9849 88.3646 35.9849C87.82 35.9849 87.459 36.3626 87.459 37.0289C87.459 37.7009 87.82 38.0785 88.3646 38.0785C88.7672 38.0785 89.0158 37.9119 89.1401 37.5954H89.8682C89.6847 38.1951 89.1638 38.6116 88.3646 38.6116C87.4294 38.6116 86.7664 37.9897 86.7664 37.0289Z" fill="#111827"/>
<path d="M90.6473 37.712V36.0183H90.2625V35.5018H90.6473V34.741H91.328V35.5018H92.1212V36.0183H91.328V37.712C91.328 37.9397 91.4227 38.0341 91.7068 38.0341H92.1212V38.5616H91.5885C91.0083 38.5616 90.6473 38.334 90.6473 37.712Z" fill="#111827"/>
</g>
<g id="Heading">
<path d="M9.23963 21.5693L0 4.0146H8.34547L12.9653 13.9416L17.5851 4.0146H25.8188L16.5792 21.5693V29.7445H9.23963V21.5693Z" fill="#077DBB"/>
<path d="M27.3155 29.7445V9.27007H34.6177V29.7445H27.3155ZM31.0039 7.37226C28.3959 7.37226 26.7194 5.76643 26.7194 3.72263C26.7194 1.64234 28.3959 0 31.0039 0C33.5746 0 35.2511 1.64234 35.2511 3.72263C35.2511 5.76643 33.5746 7.37226 31.0039 7.37226Z" fill="#077DBB"/>
<path d="M47.4197 14.6715C45.6687 14.6715 44.4392 15.6204 44.1039 17.4818H50.5493C50.5493 15.6569 49.0963 14.6715 47.4197 14.6715ZM57.5535 22.6642C56.5849 26.8613 52.6729 30 47.457 30C41.2724 30 36.8389 26.0219 36.8389 19.4891C36.8389 12.9927 41.1979 9.0146 47.457 9.0146C53.6416 9.0146 58.0006 12.9197 58.0006 19.2701C58.0006 19.8175 57.9633 20.4015 57.8888 20.9489H44.0667C44.2157 23.3212 45.5197 24.2701 47.1589 24.2701C48.5747 24.2701 49.3571 23.5037 49.7669 22.6642H57.5535Z" fill="#077DBB"/>
<path d="M60.2439 29.7445V2.73723H67.5461V29.7445H60.2439Z" fill="#077DBB"/>
<path d="M69.7673 19.4891C69.7673 12.9562 73.7165 9.0146 78.7088 9.0146C81.4658 9.0146 83.6267 10.219 84.7817 12.0803V2.73723H92.1212V29.7445H84.7817V26.8978C83.7012 28.7226 81.6149 30 78.6716 30C73.7165 30 69.7673 26.0219 69.7673 19.4891ZM84.8189 19.4891C84.8189 16.7518 83.0679 15.2555 81.0188 15.2555C78.9324 15.2555 77.2186 16.7153 77.2186 19.4891C77.2186 22.2263 78.9324 23.7591 81.0188 23.7591C83.0679 23.7591 84.8189 22.2628 84.8189 19.4891Z" fill="#077DBB"/>
</g>
</g>
</svg>
