<svg width="32" height="32" viewBox="0 0 32 32" fill="none" xmlns="http://www.w3.org/2000/svg">
<g id="Lock">
<g id="Iconly/Bold/Lock">
<g id="Lock_2">
<path id="Vector" d="M15.9797 2.66669C20.0713 2.66669 23.3636 5.8864 23.3636 9.86136V11.9058C25.6601 12.6226 27.3334 14.7015 27.3334 17.1846V23.7671C27.3334 26.8411 24.7849 29.3334 21.643 29.3334H10.3584C7.21516 29.3334 4.66669 26.8411 4.66669 23.7671V17.1846C4.66669 14.7015 6.34128 12.6226 8.6364 11.9058V9.86136C8.64995 5.8864 11.9422 2.66669 15.9797 2.66669ZM15.9932 17.8457C15.3429 17.8457 14.8145 18.3625 14.8145 18.9985V21.9399C14.8145 22.5892 15.3429 23.1059 15.9932 23.1059C16.6571 23.1059 17.1855 22.5892 17.1855 21.9399V18.9985C17.1855 18.3625 16.6571 17.8457 15.9932 17.8457ZM16.0068 4.98541C13.2564 4.98541 11.0209 7.15839 11.0074 9.83486V11.6183H20.9926V9.86136C20.9926 7.17164 18.7571 4.98541 16.0068 4.98541Z" fill="#16A34A"/>
</g>
</g>
</g>
</svg>
