<svg width="32" height="32" viewBox="0 0 32 32" fill="none" xmlns="http://www.w3.org/2000/svg">
<g id="Send">
<g id="Iconly/Bold/Send">
<g id="Send_2">
<path id="Vector" d="M28.5805 3.44266C27.9136 2.75815 26.9265 2.50314 26.0061 2.77157L4.54399 9.01272C3.57293 9.2825 2.88465 10.0569 2.69924 11.0408C2.50983 12.042 3.17143 13.3131 4.03578 13.8446L10.7465 17.9691C11.4348 18.3919 12.3232 18.2859 12.8927 17.7114L20.5772 9.97909C20.964 9.57643 21.6043 9.57643 21.9911 9.97909C22.378 10.3683 22.378 10.9991 21.9911 11.4018L14.2933 19.1355C13.7224 19.7086 13.6157 20.6011 14.0359 21.2937L18.1362 28.0717C18.6164 28.877 19.4434 29.3334 20.3505 29.3334C20.4572 29.3334 20.5772 29.3334 20.6839 29.3199C21.7244 29.1857 22.5514 28.4744 22.8582 27.4677L29.2208 6.03307C29.5009 5.12039 29.2474 4.12718 28.5805 3.44266Z" fill="#077DBB"/>
</g>
</g>
</g>
</svg>
