<svg width="55" height="55" viewBox="0 0 55 55" fill="none" xmlns="http://www.w3.org/2000/svg">
<g id="Group 56301">
<path id="Vector" d="M32.1762 44.6934C42.0465 40.9918 47.0483 29.9866 43.3482 20.1126C39.648 10.2386 28.6469 5.23485 18.7766 8.93641C8.90634 12.638 3.9045 23.6431 7.60467 33.5171C11.3048 43.3911 22.3059 48.3949 32.1762 44.6934Z" fill="#077DBB"/>
<path id="Vector_2" d="M42.1155 40.1326C48.9473 32.1022 47.9782 20.0518 39.9507 13.2174C31.9233 6.38295 19.8775 7.35253 13.0456 15.383C6.21373 23.4134 7.18291 35.4637 15.2103 42.2982C23.2378 49.1326 35.2836 48.1631 42.1155 40.1326Z" fill="#077DBB"/>
<path id="Vector_3" opacity="0.4" d="M42.1155 40.1326C48.9473 32.1022 47.9782 20.0518 39.9507 13.2174C31.9233 6.38295 19.8775 7.35253 13.0456 15.383C6.21373 23.4134 7.18291 35.4637 15.2103 42.2982C23.2378 49.1326 35.2836 48.1631 42.1155 40.1326Z" fill="white"/>
<path id="Vector_4" d="M40.5844 33.6374C39.4143 36.2083 37.5086 38.3743 35.1081 39.8619C32.7076 41.3494 29.9202 42.0916 27.0981 41.9947C24.2761 41.8977 21.5461 40.966 19.2533 39.3172C16.9605 37.6685 15.2078 35.3767 14.2168 32.7316C13.2257 30.0865 13.0408 27.2069 13.6854 24.4567C14.3301 21.7065 15.7753 19.2093 17.8384 17.2806C19.9015 15.3519 22.4899 14.0784 25.2763 13.6211C28.0628 13.1638 30.9223 13.5431 33.4932 14.7112C36.9411 16.2818 39.6246 19.1574 40.9543 22.7062C42.284 26.255 42.1509 30.1867 40.5844 33.6374Z" fill="#077DBB"/>
<g id="Vector_5" opacity="0.5">
<path d="M34.5079 24.5993L28.848 33.8972L27.1507 32.8632L26.6694 24.5478L26.6014 24.5063L23.039 30.3584L21.074 29.1612L26.7339 19.8633L28.4584 20.9139L28.9107 29.2054L28.9923 29.2552L32.5519 23.4077L34.5079 24.5993Z" fill="white"/>
<path d="M23.6405 22.1129L33.7136 28.2495L32.6717 29.9611L22.5986 23.8245L23.6405 22.1129Z" fill="white"/>
<path d="M22.2344 24.4229L32.3074 30.5595L31.2655 32.2711L21.1925 26.1345L22.2344 24.4229Z" fill="white"/>
</g>
</g>
</svg>
