<svg width="25" height="24" viewBox="0 0 25 24" fill="none" xmlns="http://www.w3.org/2000/svg">
<path d="M20.47 1.75H17.53C16.26 1.75 15.5 2.51 15.5 3.78V6.72C15.5 7.99 16.26 8.75 17.53 8.75H20.47C21.74 8.75 22.5 7.99 22.5 6.72V3.78C22.5 2.51 21.74 1.75 20.47 1.75ZM20.69 5.06C20.57 5.18 20.41 5.24 20.25 5.24C20.09 5.24 19.93 5.18 19.81 5.06L19.63 4.88V7.12C19.63 7.47 19.35 7.75 19 7.75C18.65 7.75 18.37 7.47 18.37 7.12V4.88L18.19 5.06C17.95 5.3 17.55 5.3 17.31 5.06C17.07 4.82 17.07 4.42 17.31 4.18L18.56 2.93C18.61 2.88 18.68 2.84 18.75 2.81C18.77 2.8 18.79 2.8 18.81 2.79C18.86 2.77 18.91 2.76 18.97 2.76C18.99 2.76 19.01 2.76 19.03 2.76C19.1 2.76 19.16 2.77 19.23 2.8C19.24 2.8 19.24 2.8 19.25 2.8C19.32 2.83 19.38 2.87 19.43 2.92C19.44 2.93 19.44 2.93 19.45 2.93L20.7 4.18C20.94 4.42 20.94 4.82 20.69 5.06Z" fill="#F9FAFB"/>
<path d="M2.5 11.46V16.46C2.5 18.75 4.35 20.6 6.64 20.6H18.35C20.64 20.6 22.5 18.74 22.5 16.45V11.46C22.5 10.79 21.96 10.25 21.29 10.25H3.71C3.04 10.25 2.5 10.79 2.5 11.46ZM8.5 17.25H6.5C6.09 17.25 5.75 16.91 5.75 16.5C5.75 16.09 6.09 15.75 6.5 15.75H8.5C8.91 15.75 9.25 16.09 9.25 16.5C9.25 16.91 8.91 17.25 8.5 17.25ZM15 17.25H11C10.59 17.25 10.25 16.91 10.25 16.5C10.25 16.09 10.59 15.75 11 15.75H15C15.41 15.75 15.75 16.09 15.75 16.5C15.75 16.91 15.41 17.25 15 17.25Z" fill="#F9FAFB"/>
<path d="M14 4.61039V7.54039C14 8.21039 13.46 8.75039 12.79 8.75039H3.71C3.03 8.75039 2.5 8.19039 2.5 7.52039C2.51 6.39039 2.96 5.36039 3.71 4.61039C4.46 3.86039 5.5 3.40039 6.64 3.40039H12.79C13.46 3.40039 14 3.94039 14 4.61039Z" fill="#F9FAFB"/>
</svg>
