<svg width="98" height="42" viewBox="0 0 98 42" fill="none" xmlns="http://www.w3.org/2000/svg">
<g id="Logo">
<g id="Supporting Text">
<path d="M52.2342 39.3294C52.2342 38.9271 51.9067 38.6822 51.4281 38.6822H50.4835V39.9475H51.4533C51.9382 39.9475 52.2342 39.7201 52.2342 39.3294ZM52.1208 37.5627C52.1208 37.1953 51.8374 36.9796 51.3714 36.9796H50.4835V38.1399H51.3714C51.8374 38.1399 52.1208 37.9359 52.1208 37.5627ZM52.952 39.3994C52.952 40.0175 52.4105 40.4898 51.5163 40.4898H49.7656V36.4373H51.4344C52.3601 36.4373 52.8513 36.9096 52.8513 37.481C52.8513 37.9708 52.5301 38.2682 52.1082 38.4082C52.5742 38.484 52.952 38.9155 52.952 39.3994Z" fill="#F9FAFB"/>
<path d="M55.0987 39.7259L56.1125 37.277H56.8556L54.7271 42H53.9841L54.6893 40.4373L53.3228 37.277H54.1226L55.0987 39.7259Z" fill="#F9FAFB"/>
<path d="M58.7939 38.4548C58.7939 37.242 59.7951 36.3848 61.0294 36.3848C61.9425 36.3848 62.7297 36.8105 63.0634 37.6035H62.2007C61.9677 37.172 61.5521 36.9679 61.0294 36.9679C60.1604 36.9679 59.5307 37.5394 59.5307 38.4548C59.5307 39.3703 60.1604 39.9475 61.0294 39.9475C61.5521 39.9475 61.9677 39.7434 62.2007 39.312H63.0634C62.7297 40.105 61.9425 40.5248 61.0294 40.5248C59.7951 40.5248 58.7939 39.6735 58.7939 38.4548Z" fill="#F9FAFB"/>
<path d="M64.6216 38.7988V40.4898H63.9037V37.277H64.6216V37.7434C64.8231 37.4227 65.1695 37.2245 65.6607 37.2245V37.9125H65.478C64.9491 37.9125 64.6216 38.1166 64.6216 38.7988Z" fill="#F9FAFB"/>
<path d="M67.7815 37.7843C67.2966 37.7843 66.9062 38.0875 66.8306 38.5948H68.7513C68.7387 38.0991 68.3168 37.7843 67.7815 37.7843ZM69.4062 39.5335C69.211 40.0933 68.6631 40.5423 67.813 40.5423C66.818 40.5423 66.0812 39.8892 66.0812 38.8805C66.0812 37.8717 66.7865 37.2245 67.813 37.2245C68.8017 37.2245 69.5007 37.8601 69.5007 38.8047C69.5007 38.9155 69.4944 39.0204 69.4755 39.1312H66.8243C66.8747 39.6618 67.284 39.9825 67.813 39.9825C68.2538 39.9825 68.4994 39.7843 68.6316 39.5335H69.4062Z" fill="#F9FAFB"/>
<path d="M69.9678 38.8688C69.9678 37.8776 70.692 37.2245 71.6114 37.2245C72.0648 37.2245 72.5434 37.4227 72.8079 37.7259V36.1749H73.5321V40.4898H72.8079V40.0058C72.5875 40.2974 72.1719 40.5423 71.6051 40.5423C70.692 40.5423 69.9678 39.8601 69.9678 38.8688ZM72.8079 38.8805C72.8079 38.1924 72.2978 37.8017 71.7563 37.8017C71.221 37.8017 70.7046 38.1749 70.7046 38.8688C70.7046 39.5627 71.221 39.965 71.7563 39.965C72.2978 39.965 72.8079 39.5743 72.8079 38.8805Z" fill="#F9FAFB"/>
<path d="M74.475 40.4898V37.277H75.1929V40.4898H74.475ZM74.8402 36.8513C74.5821 36.8513 74.3805 36.6647 74.3805 36.4257C74.3805 36.1866 74.5821 36 74.8402 36C75.0921 36 75.2936 36.1866 75.2936 36.4257C75.2936 36.6647 75.0921 36.8513 74.8402 36.8513Z" fill="#F9FAFB"/>
<path d="M76.2488 39.5977V37.8192H75.8394V37.277H76.2488V36.4781H76.9729V37.277H77.8168V37.8192H76.9729V39.5977C76.9729 39.8367 77.0737 39.9359 77.376 39.9359H77.8168V40.4898H77.25C76.6329 40.4898 76.2488 40.2507 76.2488 39.5977Z" fill="#F9FAFB"/>
<path d="M81.5437 36.4373C82.948 36.4373 83.8674 37.2245 83.8674 38.4781C83.8674 39.7259 82.948 40.4898 81.5437 40.4898H80.1142V36.4373H81.5437ZM80.8321 39.9475H81.5437C82.5765 39.9475 83.1306 39.3994 83.1306 38.4781C83.1306 37.551 82.5765 36.9796 81.5437 36.9796H80.8321V39.9475Z" fill="#F9FAFB"/>
<path d="M84.5789 40.4898V37.277H85.2968V40.4898H84.5789ZM84.9441 36.8513C84.686 36.8513 84.4845 36.6647 84.4845 36.4257C84.4845 36.1866 84.686 36 84.9441 36C85.196 36 85.3976 36.1866 85.3976 36.4257C85.3976 36.6647 85.196 36.8513 84.9441 36.8513Z" fill="#F9FAFB"/>
<path d="M86.9572 38.7988V40.4898H86.2393V37.277H86.9572V37.7434C87.1587 37.4227 87.5051 37.2245 87.9963 37.2245V37.9125H87.8136C87.2847 37.9125 86.9572 38.1166 86.9572 38.7988Z" fill="#F9FAFB"/>
<path d="M90.1171 37.7843C89.6322 37.7843 89.2418 38.0875 89.1662 38.5948H91.0869C91.0743 38.0991 90.6524 37.7843 90.1171 37.7843ZM91.7418 39.5335C91.5466 40.0933 90.9987 40.5423 90.1486 40.5423C89.1536 40.5423 88.4168 39.8892 88.4168 38.8805C88.4168 37.8717 89.1221 37.2245 90.1486 37.2245C91.1373 37.2245 91.8363 37.8601 91.8363 38.8047C91.8363 38.9155 91.83 39.0204 91.8111 39.1312H89.1599C89.2103 39.6618 89.6196 39.9825 90.1486 39.9825C90.5894 39.9825 90.835 39.7843 90.9672 39.5335H91.7418Z" fill="#F9FAFB"/>
<path d="M92.3034 38.8805C92.3034 37.8776 93.0087 37.2245 94.0037 37.2245C94.8538 37.2245 95.408 37.6152 95.6032 38.2915H94.8286C94.709 37.9825 94.4319 37.7843 94.0037 37.7843C93.4244 37.7843 93.0402 38.1808 93.0402 38.8805C93.0402 39.586 93.4244 39.9825 94.0037 39.9825C94.4319 39.9825 94.6964 39.8076 94.8286 39.4752H95.6032C95.408 40.105 94.8538 40.5423 94.0037 40.5423C93.0087 40.5423 92.3034 39.8892 92.3034 38.8805Z" fill="#F9FAFB"/>
<path d="M96.432 39.5977V37.8192H96.0227V37.277H96.432V36.4781H97.1562V37.277H98V37.8192H97.1562V39.5977C97.1562 39.8367 97.2569 39.9359 97.5592 39.9359H98V40.4898H97.4332C96.8161 40.4898 96.432 40.2507 96.432 39.5977Z" fill="#F9FAFB"/>
</g>
<g id="Heading">
<path d="M9.82926 22.6478L0 4.21533H8.87804L13.7927 14.6387L18.7073 4.21533H27.4664L17.6372 22.6478V31.2318H9.82926V22.6478Z" fill="#CCECFD"/>
<path d="M29.0586 31.2318V9.73358H36.8269V31.2318H29.0586ZM32.9824 7.74088C30.208 7.74088 28.4245 6.05475 28.4245 3.90876C28.4245 1.72445 30.208 0 32.9824 0C35.7172 0 37.5007 1.72445 37.5007 3.90876C37.5007 6.05475 35.7172 7.74088 32.9824 7.74088Z" fill="#CCECFD"/>
<path d="M50.4459 15.4051C48.5831 15.4051 47.2751 16.4015 46.9184 18.3558H53.7751C53.7751 16.4398 52.2294 15.4051 50.4459 15.4051ZM61.2263 23.7974C60.1959 28.2044 56.0343 31.5 50.4855 31.5C43.9062 31.5 39.1898 27.323 39.1898 20.4635C39.1898 13.6423 43.827 9.46533 50.4855 9.46533C57.0648 9.46533 61.702 13.5657 61.702 20.2336C61.702 20.8084 61.6623 21.4215 61.5831 21.9963H46.8788C47.0373 24.4872 48.4245 25.4836 50.1684 25.4836C51.6745 25.4836 52.5068 24.6788 52.9428 23.7974H61.2263Z" fill="#CCECFD"/>
<path d="M64.0884 31.2318V2.87409H71.8567V31.2318H64.0884Z" fill="#CCECFD"/>
<path d="M74.2195 20.4635C74.2195 13.604 78.4207 9.46533 83.7317 9.46533C86.6646 9.46533 88.9634 10.7299 90.1921 12.6843V2.87409H98V31.2318H90.1921V28.2427C89.0427 30.1588 86.8232 31.5 83.6921 31.5C78.4207 31.5 74.2195 27.323 74.2195 20.4635ZM90.2317 20.4635C90.2317 17.5894 88.3689 16.0182 86.189 16.0182C83.9695 16.0182 82.1463 17.5511 82.1463 20.4635C82.1463 23.3376 83.9695 24.9471 86.189 24.9471C88.3689 24.9471 90.2317 23.3759 90.2317 20.4635Z" fill="#CCECFD"/>
</g>
</g>
</svg>
